<svg width="240" height="87" viewBox="0 0 240 87" fill="none" xmlns="http://www.w3.org/2000/svg">
<path d="M229.176 67.938L210.892 45.2876H202.887L225.174 19.3624H234.362L214.167 42.7406L214.804 38.1013L239.274 67.938H229.176ZM195.701 67.938V1.5332H204.434V67.938H195.701Z" fill="#FFFDFB"/>
<path d="M184.908 67.8344V19.2588H193.641V67.8344H184.908ZM177.449 26.1722V19.2588H193.641V26.1722H177.449Z" fill="#FFFDFB"/>
<path d="M134.861 67.8348V19.2592H141.775V40.0903H140.683C140.683 35.2994 141.32 31.2666 142.593 27.9918C143.928 24.6564 145.929 22.1397 148.597 20.4417C151.265 18.683 154.631 17.8037 158.694 17.8037H159.058C165.183 17.8037 169.701 19.714 172.612 23.5345C175.584 27.3551 177.069 32.8737 177.069 40.0903V67.8348H168.337V38.271C168.337 34.511 167.275 31.5092 165.153 29.2654C163.03 26.9609 160.119 25.8087 156.42 25.8087C152.6 25.8087 149.507 26.9912 147.142 29.3563C144.777 31.7214 143.594 34.8749 143.594 38.8167V67.8348H134.861Z" fill="#FFFDFB"/>
<path d="M125.84 67.8343V53.2798H124.384V36.4512C124.384 33.1158 123.505 30.5991 121.746 28.901C120.048 27.203 117.532 26.354 114.196 26.354C112.316 26.354 110.376 26.3843 108.374 26.445C106.373 26.5056 104.463 26.5663 102.644 26.6269C100.824 26.6875 99.2475 26.7785 97.9133 26.8998V19.2587C99.2475 19.1374 100.642 19.0464 102.098 18.9858C103.614 18.8645 105.16 18.8039 106.737 18.8039C108.314 18.7432 109.83 18.7129 111.285 18.7129C116.258 18.7129 120.321 19.3193 123.475 20.5322C126.628 21.6844 128.963 23.5947 130.479 26.263C131.995 28.9314 132.753 32.5397 132.753 37.0879V67.8343H125.84ZM109.921 69.1078C106.282 69.1078 103.129 68.5014 100.46 67.2885C97.8527 66.015 95.8211 64.1957 94.3656 61.8306C92.9708 59.4655 92.2734 56.6152 92.2734 53.2798C92.2734 49.8231 93.0315 46.9425 94.5476 44.6381C96.1243 42.3336 98.3985 40.6053 101.37 39.453C104.342 38.2402 107.92 37.6337 112.104 37.6337H125.294V44.1832H111.74C108.223 44.1832 105.524 45.0322 103.644 46.7303C101.764 48.4283 100.824 50.6115 100.824 53.2798C100.824 55.9481 101.764 58.101 103.644 59.7383C105.524 61.3757 108.223 62.1944 111.74 62.1944C113.802 62.1944 115.773 61.8305 117.653 61.1028C119.533 60.3145 121.079 59.0409 122.292 57.2823C123.566 55.463 124.263 52.9766 124.384 49.8231L126.749 53.2798C126.446 56.7365 125.597 59.6474 124.202 62.0125C122.868 64.3169 120.988 66.0756 118.562 67.2885C116.197 68.5014 113.317 69.1078 109.921 69.1078Z" fill="#FFFDFB"/>
<path d="M66.5921 69.29C60.8309 69.29 56.4039 67.41 53.3111 63.6501C50.2183 59.8902 48.6719 54.4626 48.6719 47.3673V19.168H57.4046V49.0956C57.4046 52.9162 58.4355 55.918 60.4974 58.1012C62.5593 60.2237 65.3489 61.285 68.8662 61.285C72.5048 61.285 75.4764 60.1328 77.7808 57.8283C80.0853 55.4632 81.2375 52.2491 81.2375 48.186V19.168H89.9702V67.8345H83.0568V47.0034H84.1484C84.1484 51.7943 83.5117 55.8574 82.2382 59.1928C80.9646 62.4676 79.0544 64.9843 76.5073 66.7429C74.0209 68.441 70.8371 69.29 66.9559 69.29H66.5921Z" fill="#FFFDFB"/>
<path d="M23.1052 69.4709C18.7995 69.4709 14.888 68.5613 11.3707 66.742C7.85336 64.9226 5.06375 62.224 3.00186 58.646C1.00062 55.068 0 50.6107 0 45.2741V43H8.91462V46.9115C8.91462 51.4597 10.2488 55.0074 12.9171 57.5544C15.5854 60.0408 18.9815 61.284 23.1052 61.284C27.229 61.284 30.6251 60.0408 33.2934 57.5544C35.9617 55.0074 37.2959 51.4597 37.2959 46.9115V7.61436H46.2105V45.2741C46.2105 50.6107 45.1795 55.068 43.1177 58.646C41.1164 62.224 38.3571 64.9226 34.8398 66.742C31.3831 68.5613 27.4716 69.4709 23.1052 69.4709ZM8.73269 9.43367V1.42871H46.2105V9.43367H8.73269Z" fill="#FFFDFB"/>
<path d="M81.2154 81.8379V71.1911H82.6447V81.8379H81.2154ZM85.5683 81.8379V74.0497H86.6767V77.3896H86.5017C86.5017 76.6214 86.6038 75.9748 86.808 75.4498C87.0219 74.915 87.3428 74.5115 87.7706 74.2393C88.1984 73.9573 88.738 73.8163 89.3895 73.8163H89.4478C90.4299 73.8163 91.1542 74.1226 91.6209 74.7351C92.0974 75.3477 92.3356 76.2325 92.3356 77.3896V81.8379H90.9355V77.0979C90.9355 76.495 90.7653 76.0137 90.425 75.654C90.0847 75.2845 89.618 75.0998 89.0249 75.0998C88.4123 75.0998 87.9164 75.2894 87.5372 75.6686C87.158 76.0478 86.9684 76.5534 86.9684 77.1854V81.8379H85.5683ZM97.931 81.9254C97.3476 81.9254 96.842 81.8428 96.4142 81.6775C95.9961 81.5122 95.6704 81.2302 95.437 80.8315C95.2134 80.4232 95.1016 79.8738 95.1016 79.1835V71.6869H96.4433V79.3585C96.4433 79.7766 96.5552 80.1023 96.7788 80.3357C97.0122 80.5593 97.3379 80.6711 97.756 80.6711H99.1269V81.9254H97.931ZM93.7598 75.0998V74.0497H99.1269V75.0998H93.7598ZM104.361 82.1004C103.68 82.1004 103.092 81.9837 102.596 81.7504C102.1 81.517 101.697 81.2107 101.386 80.8315C101.075 80.4426 100.841 80.0099 100.686 79.5335C100.54 79.0571 100.467 78.5709 100.467 78.075V77.8125C100.467 77.3069 100.54 76.8159 100.686 76.3395C100.841 75.863 101.075 75.4352 101.386 75.056C101.697 74.6671 102.091 74.3608 102.567 74.1372C103.053 73.9038 103.622 73.7871 104.274 73.7871C105.119 73.7871 105.815 73.9719 106.359 74.3414C106.913 74.7011 107.322 75.1678 107.584 75.7415C107.856 76.3151 107.993 76.9277 107.993 77.5792V78.2063H101.079V77.1562H106.972L106.651 77.725C106.651 77.1708 106.563 76.6944 106.388 76.2957C106.213 75.8873 105.951 75.5713 105.601 75.3477C105.251 75.1241 104.808 75.0122 104.274 75.0122C103.719 75.0122 103.257 75.1386 102.888 75.3914C102.528 75.6443 102.256 75.9894 102.071 76.427C101.896 76.8645 101.809 77.3701 101.809 77.9438C101.809 78.498 101.896 78.9987 102.071 79.446C102.256 79.8835 102.538 80.2336 102.917 80.4961C103.296 80.7489 103.778 80.8753 104.361 80.8753C104.974 80.8753 105.469 80.7392 105.849 80.4669C106.238 80.1947 106.471 79.8787 106.549 79.5189H107.861C107.754 80.0537 107.54 80.5155 107.22 80.9045C106.899 81.2934 106.495 81.59 106.009 81.7941C105.523 81.9983 104.974 82.1004 104.361 82.1004ZM109.981 81.8379V74.0497H111.089V77.2583H111.031C111.031 76.1207 111.279 75.2894 111.774 74.7643C112.28 74.2295 113.034 73.9621 114.035 73.9621H114.298V75.2164H113.802C113.024 75.2164 112.426 75.4255 112.008 75.8436C111.59 76.2519 111.381 76.8451 111.381 77.6229V81.8379H109.981ZM120.645 81.8379V79.5043H120.412V76.8062C120.412 76.2714 120.271 75.8679 119.989 75.5956C119.716 75.3234 119.313 75.1873 118.778 75.1873C118.477 75.1873 118.166 75.1921 117.845 75.2018C117.524 75.2116 117.218 75.2213 116.926 75.231C116.634 75.2407 116.381 75.2553 116.167 75.2748V74.0497C116.381 74.0302 116.605 74.0156 116.838 74.0059C117.081 73.9865 117.329 73.9767 117.582 73.9767C117.835 73.967 118.078 73.9621 118.311 73.9621C119.109 73.9621 119.76 74.0594 120.266 74.2538C120.771 74.4386 121.146 74.7449 121.389 75.1727C121.632 75.6005 121.753 76.179 121.753 76.9083V81.8379H120.645ZM118.093 82.0421C117.509 82.0421 117.004 81.9448 116.576 81.7504C116.158 81.5462 115.832 81.2545 115.599 80.8753C115.375 80.4961 115.263 80.0391 115.263 79.5043C115.263 78.9501 115.385 78.4883 115.628 78.1188C115.881 77.7493 116.245 77.4722 116.722 77.2875C117.198 77.093 117.772 76.9958 118.443 76.9958H120.557V78.0459H118.384C117.82 78.0459 117.388 78.182 117.086 78.4542C116.785 78.7265 116.634 79.0765 116.634 79.5043C116.634 79.9322 116.785 80.2773 117.086 80.5399C117.388 80.8024 117.82 80.9336 118.384 80.9336C118.715 80.9336 119.031 80.8753 119.332 80.7586C119.634 80.6322 119.882 80.428 120.076 80.1461C120.28 79.8544 120.392 79.4557 120.412 78.9501L120.791 79.5043C120.742 80.0586 120.606 80.5253 120.382 80.9045C120.169 81.2739 119.867 81.5559 119.478 81.7504C119.099 81.9448 118.637 82.0421 118.093 82.0421ZM127.663 82.1004C126.992 82.1004 126.409 81.9837 125.913 81.7504C125.427 81.517 125.023 81.2059 124.702 80.817C124.381 80.4183 124.138 79.9808 123.973 79.5043C123.818 79.0279 123.74 78.5515 123.74 78.075V77.8125C123.74 77.3166 123.818 76.8305 123.973 76.354C124.138 75.8776 124.381 75.4498 124.702 75.0706C125.033 74.6817 125.441 74.3705 125.927 74.1372C126.414 73.9038 126.982 73.7871 127.634 73.7871C128.285 73.7871 128.869 73.9087 129.384 74.1517C129.909 74.3948 130.327 74.74 130.638 75.1873C130.959 75.6248 131.139 76.145 131.178 76.7478H129.836C129.768 76.2617 129.544 75.8582 129.165 75.5373C128.786 75.2067 128.276 75.0414 127.634 75.0414C127.08 75.0414 126.618 75.1678 126.248 75.4206C125.879 75.6734 125.602 76.0186 125.417 76.4561C125.232 76.8937 125.14 77.3896 125.14 77.9438C125.14 78.4785 125.232 78.9696 125.417 79.4168C125.602 79.8544 125.879 80.2044 126.248 80.4669C126.628 80.7197 127.099 80.8461 127.663 80.8461C128.101 80.8461 128.48 80.7683 128.801 80.6128C129.122 80.4572 129.379 80.2482 129.574 79.9856C129.768 79.7231 129.885 79.4266 129.924 79.096H131.265C131.236 79.7085 131.056 80.2384 130.726 80.6857C130.405 81.133 129.977 81.483 129.442 81.7358C128.917 81.9789 128.324 82.1004 127.663 82.1004ZM136.202 81.9254C135.618 81.9254 135.113 81.8428 134.685 81.6775C134.267 81.5122 133.941 81.2302 133.708 80.8315C133.484 80.4232 133.372 79.8738 133.372 79.1835V71.6869H134.714V79.3585C134.714 79.7766 134.826 80.1023 135.049 80.3357C135.283 80.5593 135.608 80.6711 136.027 80.6711H137.398V81.9254H136.202ZM132.03 75.0998V74.0497H137.398V75.0998H132.03ZM139.757 81.8379V74.0497H141.157V81.8379H139.757ZM138.561 75.1581V74.0497H141.157V75.1581H138.561ZM140.151 72.7954C139.84 72.7954 139.606 72.7127 139.451 72.5474C139.305 72.3821 139.232 72.1731 139.232 71.9203C139.232 71.6675 139.305 71.4584 139.451 71.2931C139.606 71.1279 139.84 71.0452 140.151 71.0452C140.462 71.0452 140.69 71.1279 140.836 71.2931C140.992 71.4584 141.07 71.6675 141.07 71.9203C141.07 72.1731 140.992 72.3821 140.836 72.5474C140.69 72.7127 140.462 72.7954 140.151 72.7954ZM145.527 81.8379L142.873 74.0497H144.331L146.927 81.8379H145.527ZM145.877 81.8379V80.7295H147.569V81.8379H145.877ZM146.548 81.8379L148.809 74.0497H150.18L147.875 81.8379H146.548ZM155.18 82.1004C154.499 82.1004 153.911 81.9837 153.415 81.7504C152.919 81.517 152.515 81.2107 152.204 80.8315C151.893 80.4426 151.66 80.0099 151.504 79.5335C151.358 79.0571 151.285 78.5709 151.285 78.075V77.8125C151.285 77.3069 151.358 76.8159 151.504 76.3395C151.66 75.863 151.893 75.4352 152.204 75.056C152.515 74.6671 152.909 74.3608 153.386 74.1372C153.872 73.9038 154.441 73.7871 155.092 73.7871C155.938 73.7871 156.633 73.9719 157.178 74.3414C157.732 74.7011 158.14 75.1678 158.403 75.7415C158.675 76.3151 158.811 76.9277 158.811 77.5792V78.2063H151.898V77.1562H157.79L157.469 77.725C157.469 77.1708 157.382 76.6944 157.207 76.2957C157.032 75.8873 156.769 75.5713 156.419 75.3477C156.069 75.1241 155.627 75.0122 155.092 75.0122C154.538 75.0122 154.076 75.1386 153.707 75.3914C153.347 75.6443 153.075 75.9894 152.89 76.427C152.715 76.8645 152.627 77.3701 152.627 77.9438C152.627 78.498 152.715 78.9987 152.89 79.446C153.075 79.8835 153.357 80.2336 153.736 80.4961C154.115 80.7489 154.596 80.8753 155.18 80.8753C155.792 80.8753 156.288 80.7392 156.667 80.4669C157.056 80.1947 157.29 79.8787 157.367 79.5189H158.68C158.573 80.0537 158.359 80.5155 158.038 80.9045C157.717 81.2934 157.314 81.59 156.828 81.7941C156.342 81.9983 155.792 82.1004 155.18 82.1004Z" fill="#FFFDFB"/>
<path d="M186.516 0.562578C186.604 0.351139 186.902 0.348061 186.994 0.557645L189.048 5.23548C189.074 5.29514 189.122 5.34279 189.182 5.36899L193.853 7.41977C194.063 7.51221 194.059 7.81242 193.846 7.89869L189.061 9.83544C188.996 9.86185 188.944 9.9136 188.917 9.97885L186.99 14.7397C186.903 14.9563 186.596 14.9563 186.509 14.7397L184.582 9.97885C184.555 9.9136 184.503 9.86185 184.438 9.83544L179.66 7.90156C179.446 7.81487 179.443 7.51275 179.655 7.42173L184.443 5.36991C184.505 5.3432 184.555 5.2932 184.581 5.23057L186.516 0.562578Z" fill="#FFFDFB"/>
</svg>
