<svg width="30" height="29" viewBox="0 0 30 29" fill="none" xmlns="http://www.w3.org/2000/svg">
<path d="M12.3689 13.2876C12.1441 13.4482 11.855 13.5446 11.5016 13.5446H9.50997V11.4566H11.3731C11.5659 11.4566 11.7265 11.4566 11.8871 11.4887C12.0477 11.5208 12.1762 11.5851 12.3047 11.6493C12.4332 11.7457 12.5296 11.8421 12.5938 11.9706C12.6581 12.0991 12.6902 12.2918 12.6902 12.4845C12.6902 12.8379 12.5938 13.127 12.3689 13.2876Z" fill="#FFFDFB"/>
<path d="M12.1441 17.2709C11.9835 17.303 11.7907 17.3352 11.598 17.3352H9.50997V14.8617H11.6301C12.0477 14.8617 12.4011 14.958 12.6581 15.1508C12.915 15.3756 13.0435 15.6969 13.0435 16.1466C13.0435 16.3715 12.9793 16.5642 12.915 16.7248C12.8187 16.8854 12.7223 16.9818 12.5938 17.0782C12.4653 17.1746 12.3047 17.2388 12.1441 17.2709Z" fill="#FFFDFB"/>
<path d="M18.8257 13.5767C19.2433 13.5767 19.5967 13.7052 19.8215 13.9301C20.0464 14.155 20.207 14.4762 20.2713 14.958H17.3802C17.3802 14.8516 17.4022 14.7452 17.4281 14.6204C17.4334 14.5946 17.4389 14.568 17.4444 14.5404C17.4765 14.3798 17.5408 14.2192 17.6693 14.0907C17.7978 13.9622 17.9263 13.8337 18.119 13.7374C18.3118 13.641 18.5366 13.5767 18.8257 13.5767Z" fill="#FFFDFB"/>
<path fill-rule="evenodd" clip-rule="evenodd" d="M4.83768 0C2.34065 0 0.316406 2.02424 0.316406 4.52128V24.4149C0.316406 26.9119 2.34065 28.9362 4.83768 28.9362H24.7313C27.2283 28.9362 29.2526 26.9119 29.2526 24.4149V4.52128C29.2526 2.02424 27.2283 0 24.7313 0H4.83768ZM12.915 10.0753C12.5617 9.97893 12.1762 9.94681 11.7586 9.94681H7.55045V18.8128H11.855C12.2404 18.8128 12.6259 18.7486 13.0114 18.6522C13.3969 18.5559 13.7502 18.3952 14.0394 18.2025C14.3285 18.0098 14.5855 17.7206 14.7461 17.3994C14.9067 17.0782 15.0031 16.6927 15.0031 16.243C15.0031 15.6969 14.8424 15.215 14.5855 14.8295C14.3285 14.4441 13.9109 14.155 13.3648 13.9943C13.7502 13.8016 14.0715 13.5446 14.2642 13.2555C14.4891 12.9664 14.5855 12.5809 14.5855 12.1312C14.5855 11.7457 14.5212 11.3924 14.3927 11.1032C14.2642 10.8141 14.0715 10.5893 13.8145 10.4287C13.5575 10.268 13.2684 10.1395 12.915 10.0753ZM18.9542 17.6885C18.4402 17.6885 18.0548 17.56 17.7978 17.303C17.5408 17.0461 17.3481 16.5642 17.3481 16.0502H22.0059C22.0381 15.5363 22.0059 15.0865 21.9417 14.6368C21.8132 14.1871 21.6205 13.7695 21.3635 13.4161C21.1065 13.0306 20.7852 12.7737 20.3676 12.5488C19.95 12.3239 19.4682 12.2276 18.9221 12.2276C18.4081 12.2276 17.9905 12.3239 17.5729 12.4845C17.1874 12.6452 16.8341 12.9022 16.545 13.1913C16.2559 13.5125 16.031 13.8659 15.8704 14.2835C15.7098 14.7011 15.6455 15.1508 15.6455 15.6326C15.6455 16.1466 15.7098 16.5963 15.8704 17.0139C15.9989 17.4315 16.2237 17.7849 16.5128 18.074C16.802 18.3952 17.1232 18.6201 17.5408 18.7807C17.9584 18.9413 18.4081 19.0377 18.9221 19.0377C19.6609 19.0377 20.2713 18.845 20.7852 18.5237C21.2992 18.1704 21.6847 17.6243 21.9417 16.8533H20.3676C20.3034 17.0461 20.1428 17.2388 19.8858 17.4315C19.6288 17.5922 19.3076 17.6885 18.9542 17.6885ZM20.5925 10.5572H16.9947V11.4245H20.5925V10.5572Z" fill="#FFFDFB"/>
</svg>
