<svg width="30" height="29" viewBox="0 0 30 29" fill="none" xmlns="http://www.w3.org/2000/svg">
<path fill-rule="evenodd" clip-rule="evenodd" d="M0.337891 4.52128C0.337891 2.02424 2.36214 0 4.85917 0H24.7528C27.2498 0 29.2741 2.02424 29.2741 4.52128V24.4149C29.2741 26.9119 27.2498 28.9362 24.7528 28.9362H4.85917C2.36214 28.9362 0.337891 26.9119 0.337891 24.4149V4.52128ZM7.57193 14.6196C7.57193 10.6375 10.8018 7.40766 14.7838 7.40766C18.7659 7.40766 21.9958 10.6375 22.04 14.6196C22.04 17.8052 20.0047 20.5042 17.1288 21.4775C16.7749 21.5218 16.6421 21.3006 16.6421 21.1236V19.1326C16.6421 18.4689 16.4209 18.0264 16.1555 17.8052C17.7483 17.6282 19.4296 17.0531 19.4296 14.2656C19.4296 13.4692 19.1198 12.8055 18.6774 12.3188C18.6809 12.3049 18.6858 12.2875 18.6916 12.2667C18.7593 12.0223 18.9558 11.3132 18.5889 10.4163C18.5889 10.4163 17.9695 10.2393 16.5979 11.1685C16.0227 11.0357 15.4033 10.9473 14.7838 10.9473C14.1644 10.9473 13.545 10.9915 12.9698 11.1685C11.5982 10.2393 10.9788 10.4163 10.9788 10.4163C10.5878 11.3722 10.8367 12.1147 10.8877 12.2668L10.8903 12.2746C10.4036 12.8055 10.1381 13.425 10.1381 14.2214C10.1381 17.0088 11.8195 17.6282 13.4123 17.8052C13.2353 17.9822 13.0141 18.2919 12.9698 18.7786C12.5716 18.9556 11.554 19.2653 10.8903 18.1592C10.8903 18.1592 10.4921 17.4513 9.78417 17.407C9.78417 17.407 9.07628 17.407 9.73996 17.8495C9.73996 17.8495 10.2266 18.0707 10.5363 18.9113C10.5363 18.9113 10.9788 20.3272 12.9698 19.8847V21.1236C12.9698 21.3006 12.8371 21.5218 12.4831 21.4775C9.65143 20.5042 7.57193 17.8052 7.57193 14.6196Z" fill="#FFFDFB"/>
</svg>
