<svg width="30" height="29" viewBox="0 0 30 29" fill="none" xmlns="http://www.w3.org/2000/svg">
<path d="M14.7415 17C13.3851 17 12.2096 15.9149 12.2096 14.4681C12.2096 13.1117 13.2947 11.9362 14.7415 11.9362C16.0979 11.9362 17.2734 13.0213 17.2734 14.4681C17.2734 15.8245 16.0979 17 14.7415 17Z" fill="#FFFDFB"/>
<path fill-rule="evenodd" clip-rule="evenodd" d="M17.816 8.31915H11.6671C10.9437 8.40957 10.5819 8.5 10.3107 8.59042C9.94897 8.68085 9.67769 8.8617 9.40642 9.13298C9.19176 9.34763 9.09034 9.56229 8.96775 9.82175C8.93544 9.89013 8.90157 9.96181 8.86386 10.0372C8.84987 10.0792 8.83372 10.1233 8.81641 10.1706C8.72181 10.4291 8.59259 10.7821 8.59259 11.3936V17.5426C8.68301 18.266 8.77344 18.6277 8.86386 18.8989C8.95429 19.2606 9.13514 19.5319 9.40642 19.8032C9.62108 20.0178 9.83573 20.1193 10.0952 20.2419C10.1636 20.2742 10.2352 20.308 10.3107 20.3457C10.3526 20.3597 10.3968 20.3759 10.4441 20.3932C10.7025 20.4878 11.0556 20.617 11.6671 20.617H17.816C18.5394 20.5266 18.9011 20.4362 19.1724 20.3457C19.5341 20.2553 19.8054 20.0745 20.0766 19.8032C20.2913 19.5885 20.3927 19.3739 20.5153 19.1144C20.5476 19.046 20.5814 18.9744 20.6192 18.8989C20.6332 18.857 20.6493 18.8128 20.6666 18.7655C20.7612 18.5071 20.8905 18.154 20.8905 17.5426V11.3936C20.8 10.6702 20.7096 10.3085 20.6192 10.0372C20.5288 9.67553 20.3479 9.40425 20.0766 9.13298C19.862 8.91832 19.6473 8.8169 19.3879 8.69431C19.3195 8.66203 19.2477 8.6281 19.1724 8.59042C19.1304 8.57644 19.0863 8.56028 19.039 8.54297C18.7805 8.44837 18.4275 8.31915 17.816 8.31915ZM14.7415 10.5798C12.5713 10.5798 10.8532 12.2979 10.8532 14.4681C10.8532 16.6383 12.5713 18.3564 14.7415 18.3564C16.9117 18.3564 18.6298 16.6383 18.6298 14.4681C18.6298 12.2979 16.9117 10.5798 14.7415 10.5798ZM19.6245 10.4894C19.6245 10.9888 19.2197 11.3936 18.7202 11.3936C18.2208 11.3936 17.816 10.9888 17.816 10.4894C17.816 9.98995 18.2208 9.5851 18.7202 9.5851C19.2197 9.5851 19.6245 9.98995 19.6245 10.4894Z" fill="#FFFDFB"/>
<path fill-rule="evenodd" clip-rule="evenodd" d="M0.273438 4.52128C0.273438 2.02424 2.29768 0 4.79471 0H24.6883C27.1854 0 29.2096 2.02424 29.2096 4.52128V24.4149C29.2096 26.9119 27.1854 28.9362 24.6883 28.9362H4.79471C2.29768 28.9362 0.273438 26.9119 0.273438 24.4149V4.52128ZM11.6671 6.96276H17.816C18.6298 7.05319 19.1724 7.14362 19.6245 7.32447C20.1671 7.59574 20.5288 7.77659 20.9809 8.22872C21.433 8.68085 21.7043 9.13298 21.8851 9.5851C22.066 10.0372 22.2468 10.5798 22.2468 11.3936V17.5426C22.1564 18.3564 22.066 18.8989 21.8851 19.3511C21.6139 19.8936 21.433 20.2553 20.9809 20.7074C20.5288 21.1596 20.0766 21.4308 19.6245 21.6117C19.1724 21.7926 18.6298 21.9734 17.816 21.9734H11.6671C10.8532 21.883 10.3107 21.7926 9.85854 21.6117C9.31599 21.3404 8.95429 21.1596 8.50216 20.7074C8.05003 20.2553 7.77876 19.8032 7.59791 19.3511C7.41706 18.8989 7.2362 18.3564 7.2362 17.5426V11.3936C7.32663 10.5798 7.41706 10.0372 7.59791 9.5851C7.86918 9.04255 8.05003 8.68085 8.50216 8.22872C8.95429 7.77659 9.40642 7.50532 9.85854 7.32447C10.3107 7.14362 10.8532 6.96276 11.6671 6.96276Z" fill="#FFFDFB"/>
</svg>
