<svg width="30" height="29" viewBox="0 0 30 29" fill="none" xmlns="http://www.w3.org/2000/svg">
<path fill-rule="evenodd" clip-rule="evenodd" d="M0.294922 4.52128C0.294922 2.02424 2.31917 0 4.8162 0H24.7098C27.2068 0 29.2311 2.02424 29.2311 4.52128V24.4149C29.2311 26.9119 27.2068 28.9362 24.7098 28.9362H4.8162C2.31917 28.9362 0.294922 26.9119 0.294922 24.4149V4.52128ZM7.70981 12.0266V21.7021H10.7843V12.0266H7.70981ZM7.52896 8.95213C7.52896 9.94681 8.25237 10.6702 9.24705 10.6702C10.2417 10.6702 10.9651 9.94681 10.9651 8.95213C10.9651 7.95745 10.2417 7.23404 9.24705 7.23404C8.3428 7.23404 7.52896 7.95745 7.52896 8.95213ZM18.9226 21.7021H21.8162V15.734C21.8162 12.75 20.0077 11.7553 18.2896 11.7553C16.7524 11.7553 15.6673 12.75 15.396 13.383V12.0266H12.5024V21.7021H15.5768V16.5479C15.5768 15.1915 16.4811 14.4681 17.3853 14.4681C18.2896 14.4681 18.9226 14.9202 18.9226 16.4574V21.7021Z" fill="#FFFDFB"/>
</svg>
