<svg width="256" height="256" viewBox="0 0 256 256" fill="none" xmlns="http://www.w3.org/2000/svg">
<path d="M133.956 102.024C133.956 103.43 135.096 104.57 136.502 104.57H143.123C144.529 104.57 145.669 105.71 145.669 107.117V113.228C145.669 114.634 144.529 115.774 143.123 115.774H136.502C135.096 115.774 133.956 116.914 133.956 118.321V194.454C133.956 195.86 132.816 197 131.41 197H124.789C123.383 197 122.243 195.86 122.243 194.454V118.321C122.243 116.914 121.103 115.774 119.697 115.774H113.586C112.18 115.774 111.04 114.634 111.04 113.228V107.117C111.04 105.71 112.18 104.57 113.586 104.57H119.697C121.103 104.57 122.243 103.43 122.243 102.024V60.6478C122.243 59.2416 123.383 58.1016 124.789 58.1016H131.41C132.816 58.1016 133.956 59.2416 133.956 60.6478V102.024ZM75.9014 115.901L76.0238 171.217C76.0269 172.599 77.1316 173.726 78.5132 173.757L81.7578 173.829L84.9974 173.901C86.3814 173.932 87.4873 175.062 87.4873 176.447V182.415C87.4873 183.799 86.3814 184.93 84.9974 184.96L81.7578 185.032L78.4665 185.105C77.1036 185.135 76.0063 186.234 75.9772 187.596L75.9014 191.144L75.8296 194.382C75.7989 195.766 74.6682 196.872 73.284 196.872H67.2074C65.8669 196.872 64.7559 195.833 64.6668 194.495L64.4434 191.144L64.3704 187.849C64.3402 186.487 63.2432 185.39 61.8811 185.36L58.5869 185.287L55.3468 185.215C53.9631 185.184 52.8574 184.053 52.8574 182.669V176.629C52.8574 175.223 53.9974 174.083 55.4037 174.083H62.024C63.4303 174.083 64.5703 172.943 64.5703 171.537V60.6478C64.5703 59.2416 65.7103 58.1016 67.1166 58.1016H73.2337C74.6378 58.1016 75.7769 59.2382 75.78 60.6422L75.9014 115.901ZM191.629 147.857C191.629 149.263 192.769 150.403 194.175 150.403H200.796C202.202 150.403 203.342 151.543 203.342 152.95V159.57C203.342 160.976 202.202 162.116 200.796 162.116H194.175C192.769 162.116 191.629 163.256 191.629 164.662V194.199C191.629 195.605 190.489 196.745 189.083 196.745H182.972C181.566 196.745 180.426 195.605 180.426 194.199V164.662C180.426 163.256 179.286 162.116 177.88 162.116H171.259C169.853 162.116 168.713 160.976 168.713 159.57V152.95C168.713 151.543 169.853 150.403 171.259 150.403H177.88C179.286 150.403 180.426 149.263 180.426 147.857V60.6478C180.426 59.2416 181.566 58.1016 182.972 58.1016H189.083C190.489 58.1016 191.629 59.2416 191.629 60.6478V147.857Z" fill="#2563EB"/>
</svg>
