<svg width="58" height="56" viewBox="0 0 58 56" fill="none" xmlns="http://www.w3.org/2000/svg">
<rect width="58" height="56" rx="28" fill="#FFC857"/>
<path d="M24.2115 42.9319C22.3086 42.9319 20.5799 42.54 19.0254 41.7561C17.4708 40.9723 16.238 39.8096 15.3267 38.268C14.4422 36.7264 14 34.8059 14 32.5066V31.5268H17.9399V33.2121C17.9399 35.1717 18.5295 36.7003 19.7088 37.7977C20.8881 38.8689 22.389 39.4046 24.2115 39.4046C26.0341 39.4046 27.535 38.8689 28.7143 37.7977C29.8935 36.7003 30.4832 35.1717 30.4832 33.2121V16.2808H34.4231V32.5066C34.4231 34.8059 33.9674 36.7264 33.0562 38.268C32.1717 39.8096 30.9522 40.9723 29.3977 41.7561C27.87 42.54 26.1413 42.9319 24.2115 42.9319ZM17.8595 17.0647V13.6157H34.4231V17.0647H17.8595Z" fill="#FFFDFB"/>
<path d="M39.7986 42.2268V21.2979H43.6581V42.2268H39.7986ZM36.502 24.2765V21.2979H43.6581V24.2765H36.502Z" fill="#FFFDFB"/>
<path d="M40.5087 13.2415C40.5479 13.1493 40.678 13.1479 40.7191 13.2393L41.6268 15.2549C41.6386 15.2811 41.6599 15.302 41.6864 15.3133L43.7432 16.1936C43.8376 16.234 43.8357 16.3684 43.7402 16.4061L41.633 17.2376C41.6041 17.249 41.581 17.2717 41.5691 17.3004L40.7174 19.3516C40.6782 19.446 40.5445 19.446 40.5053 19.3516L39.6536 17.3004C39.6417 17.2717 39.6186 17.249 39.5897 17.2376L37.4857 16.4074C37.3898 16.3695 37.3885 16.2343 37.4836 16.1945L39.5918 15.3137C39.6195 15.3022 39.6415 15.2803 39.6532 15.2527L40.5087 13.2415Z" fill="#FFFDFB"/>
</svg>
