<svg width="205" height="205" viewBox="0 0 205 205" fill="none" xmlns="http://www.w3.org/2000/svg">
<path d="M178.452 128.558C178.452 128.558 139.006 123.102 117.559 133.558C96.1116 144.015 76.1154 178.452 76.1154 178.452C76.1154 178.452 82.1161 135.718 72.8502 116.713C63.5843 97.7074 26.222 76.1151 26.222 76.1151C26.222 76.1151 68.0899 82.5379 87.961 72.8499C107.832 63.1619 128.559 26.2217 128.559 26.2217C128.559 26.2217 122.185 66.6464 133.114 88.4051C143.73 109.54 178.452 128.558 178.452 128.558Z" fill="#FFFDFB"/>
<path d="M169.817 154.383C169.817 154.383 157.309 160.914 153.266 168.341C149.224 175.767 150.529 189.817 150.529 189.817C150.529 189.817 143.479 176.248 136.898 172.666C130.318 169.084 115.095 170.529 115.095 170.529C115.095 170.529 128.501 163.779 132.246 156.898C135.991 150.018 134.383 135.095 134.383 135.095C134.383 135.095 140.851 148.074 148.477 152.109C155.885 156.029 169.817 154.383 169.817 154.383Z" fill="#FFFDFB"/>
</svg>
