<svg width="50" height="51" viewBox="0 0 50 51" fill="none" xmlns="http://www.w3.org/2000/svg">
<circle cx="25" cy="25.5" r="25" fill="#FFFDFB"/>
<g clip-path="url(#clip0_238_596)">
<path d="M31.015 23C31.015 23.5523 30.5673 24 30.015 24H14C13.4477 24 13 24.4477 13 25V26C13 26.5523 13.4477 27 14 27H30.015C30.5673 27 31.015 27.4477 31.015 28V29.0815C31.015 29.973 32.0934 30.4189 32.723 29.7877L36.2955 26.2062C36.6849 25.8159 36.6849 25.1841 36.2955 24.7938L32.723 21.2123C32.0934 20.5811 31.015 21.027 31.015 21.9185V23Z" fill="#1E293B"/>
</g>
<defs>
<clipPath id="clip0_238_596">
<rect width="36" height="36" fill="white" transform="translate(7 7.5)"/>
</clipPath>
</defs>
</svg>
